<svg height="4174" width="720" xmlns="http://www.w3.org/2000/svg">
<rect height="4174" fill="#555" width="720"></rect>
<text fill="#7f7" font-family="Courier New" font-size="12" xml:space="preserve">
<tspan x="10" y="26">44 megabytes installed</tspan>
<tspan x="10" y="42"></tspan>
<tspan x="10" y="58">node_modules</tspan>
<tspan x="10" y="74">└─┬ hexo@3.3.1 </tspan>
<tspan x="10" y="90">  ├── abbrev@1.1.0 </tspan>
<tspan x="10" y="106">  ├── archy@1.0.0 </tspan>
<tspan x="10" y="122">  ├── bluebird@3.5.0 </tspan>
<tspan x="10" y="138">  ├─┬ chalk@1.1.3 </tspan>
<tspan x="10" y="154">  │ ├── ansi-styles@2.2.1 </tspan>
<tspan x="10" y="170">  │ ├── escape-string-regexp@1.0.5 </tspan>
<tspan x="10" y="186">  │ ├─┬ has-ansi@2.0.0 </tspan>
<tspan x="10" y="202">  │ │ └── ansi-regex@2.1.1 </tspan>
<tspan x="10" y="218">  │ ├── strip-ansi@3.0.1 </tspan>
<tspan x="10" y="234">  │ └── supports-color@2.0.0 </tspan>
<tspan x="10" y="250">  ├─┬ cheerio@0.20.0 </tspan>
<tspan x="10" y="266">  │ ├─┬ css-select@1.2.0 </tspan>
<tspan x="10" y="282">  │ │ ├── boolbase@1.0.0 </tspan>
<tspan x="10" y="298">  │ │ ├── css-what@2.1.0 </tspan>
<tspan x="10" y="314">  │ │ ├── domutils@1.5.1 </tspan>
<tspan x="10" y="330">  │ │ └── nth-check@1.0.1 </tspan>
<tspan x="10" y="346">  │ ├─┬ dom-serializer@0.1.0 </tspan>
<tspan x="10" y="362">  │ │ └── domelementtype@1.1.3 </tspan>
<tspan x="10" y="378">  │ ├── entities@1.1.1 </tspan>
<tspan x="10" y="394">  │ ├─┬ htmlparser2@3.8.3 </tspan>
<tspan x="10" y="410">  │ │ ├── domelementtype@1.3.0 </tspan>
<tspan x="10" y="426">  │ │ ├── domhandler@2.3.0 </tspan>
<tspan x="10" y="442">  │ │ ├── entities@1.0.0 </tspan>
<tspan x="10" y="458">  │ │ └─┬ readable-stream@1.1.14 </tspan>
<tspan x="10" y="474">  │ │   ├── core-util-is@1.0.2 </tspan>
<tspan x="10" y="490">  │ │   ├── isarray@0.0.1 </tspan>
<tspan x="10" y="506">  │ │   └── string_decoder@0.10.31 </tspan>
<tspan x="10" y="522">  │ └─┬ jsdom@7.2.2 </tspan>
<tspan x="10" y="538">  │   ├── abab@1.0.3 </tspan>
<tspan x="10" y="554">  │   ├── acorn@2.7.0 </tspan>
<tspan x="10" y="570">  │   ├── acorn-globals@1.0.9 </tspan>
<tspan x="10" y="586">  │   ├── cssom@0.3.2 </tspan>
<tspan x="10" y="602">  │   ├── cssstyle@0.2.37 </tspan>
<tspan x="10" y="618">  │   ├─┬ escodegen@1.8.1 </tspan>
<tspan x="10" y="634">  │   │ ├── esprima@2.7.3 </tspan>
<tspan x="10" y="650">  │   │ ├── estraverse@1.9.3 </tspan>
<tspan x="10" y="666">  │   │ ├── esutils@2.0.2 </tspan>
<tspan x="10" y="682">  │   │ ├─┬ optionator@0.8.2 </tspan>
<tspan x="10" y="698">  │   │ │ ├── deep-is@0.1.3 </tspan>
<tspan x="10" y="714">  │   │ │ ├── fast-levenshtein@2.0.6 </tspan>
<tspan x="10" y="730">  │   │ │ ├── levn@0.3.0 </tspan>
<tspan x="10" y="746">  │   │ │ ├── prelude-ls@1.1.2 </tspan>
<tspan x="10" y="762">  │   │ │ ├── type-check@0.3.2 </tspan>
<tspan x="10" y="778">  │   │ │ └── wordwrap@1.0.0 </tspan>
<tspan x="10" y="794">  │   │ └── source-map@0.2.0 </tspan>
<tspan x="10" y="810">  │   ├── nwmatcher@1.3.9 </tspan>
<tspan x="10" y="826">  │   ├── parse5@1.5.1 </tspan>
<tspan x="10" y="842">  │   ├─┬ request@2.81.0 </tspan>
<tspan x="10" y="858">  │   │ ├── aws-sign2@0.6.0 </tspan>
<tspan x="10" y="874">  │   │ ├── aws4@1.6.0 </tspan>
<tspan x="10" y="890">  │   │ ├── caseless@0.12.0 </tspan>
<tspan x="10" y="906">  │   │ ├─┬ combined-stream@1.0.5 </tspan>
<tspan x="10" y="922">  │   │ │ └── delayed-stream@1.0.0 </tspan>
<tspan x="10" y="938">  │   │ ├── extend@3.0.0 </tspan>
<tspan x="10" y="954">  │   │ ├── forever-agent@0.6.1 </tspan>
<tspan x="10" y="970">  │   │ ├─┬ form-data@2.1.4 </tspan>
<tspan x="10" y="986">  │   │ │ └── asynckit@0.4.0 </tspan>
<tspan x="10" y="1002">  │   │ ├─┬ har-validator@4.2.1 </tspan>
<tspan x="10" y="1018">  │   │ │ ├─┬ ajv@4.11.7 </tspan>
<tspan x="10" y="1034">  │   │ │ │ ├── co@4.6.0 </tspan>
<tspan x="10" y="1050">  │   │ │ │ └─┬ json-stable-stringify@1.0.1 </tspan>
<tspan x="10" y="1066">  │   │ │ │   └── jsonify@0.0.0 </tspan>
<tspan x="10" y="1082">  │   │ │ └── har-schema@1.0.5 </tspan>
<tspan x="10" y="1098">  │   │ ├─┬ hawk@3.1.3 </tspan>
<tspan x="10" y="1114">  │   │ │ ├── boom@2.10.1 </tspan>
<tspan x="10" y="1130">  │   │ │ ├── cryptiles@2.0.5 </tspan>
<tspan x="10" y="1146">  │   │ │ ├── hoek@2.16.3 </tspan>
<tspan x="10" y="1162">  │   │ │ └── sntp@1.0.9 </tspan>
<tspan x="10" y="1178">  │   │ ├─┬ http-signature@1.1.1 </tspan>
<tspan x="10" y="1194">  │   │ │ ├── assert-plus@0.2.0 </tspan>
<tspan x="10" y="1210">  │   │ │ ├─┬ jsprim@1.4.0 </tspan>
<tspan x="10" y="1226">  │   │ │ │ ├── assert-plus@1.0.0 </tspan>
<tspan x="10" y="1242">  │   │ │ │ ├── extsprintf@1.0.2 </tspan>
<tspan x="10" y="1258">  │   │ │ │ ├── json-schema@0.2.3 </tspan>
<tspan x="10" y="1274">  │   │ │ │ └── verror@1.3.6 </tspan>
<tspan x="10" y="1290">  │   │ │ └─┬ sshpk@1.13.0 </tspan>
<tspan x="10" y="1306">  │   │ │   ├── asn1@0.2.3 </tspan>
<tspan x="10" y="1322">  │   │ │   ├── assert-plus@1.0.0 </tspan>
<tspan x="10" y="1338">  │   │ │   ├── bcrypt-pbkdf@1.0.1 </tspan>
<tspan x="10" y="1354">  │   │ │   ├─┬ dashdash@1.14.1 </tspan>
<tspan x="10" y="1370">  │   │ │   │ └── assert-plus@1.0.0 </tspan>
<tspan x="10" y="1386">  │   │ │   ├── ecc-jsbn@0.1.1 </tspan>
<tspan x="10" y="1402">  │   │ │   ├─┬ getpass@0.1.6 </tspan>
<tspan x="10" y="1418">  │   │ │   │ └── assert-plus@1.0.0 </tspan>
<tspan x="10" y="1434">  │   │ │   ├── jodid25519@1.0.2 </tspan>
<tspan x="10" y="1450">  │   │ │   ├── jsbn@0.1.1 </tspan>
<tspan x="10" y="1466">  │   │ │   └── tweetnacl@0.14.5 </tspan>
<tspan x="10" y="1482">  │   │ ├── is-typedarray@1.0.0 </tspan>
<tspan x="10" y="1498">  │   │ ├── isstream@0.1.2 </tspan>
<tspan x="10" y="1514">  │   │ ├── json-stringify-safe@5.0.1 </tspan>
<tspan x="10" y="1530">  │   │ ├─┬ mime-types@2.1.15 </tspan>
<tspan x="10" y="1546">  │   │ │ └── mime-db@1.27.0 </tspan>
<tspan x="10" y="1562">  │   │ ├── oauth-sign@0.8.2 </tspan>
<tspan x="10" y="1578">  │   │ ├── performance-now@0.2.0 </tspan>
<tspan x="10" y="1594">  │   │ ├── qs@6.4.0 </tspan>
<tspan x="10" y="1610">  │   │ ├── safe-buffer@5.0.1 </tspan>
<tspan x="10" y="1626">  │   │ ├── stringstream@0.0.5 </tspan>
<tspan x="10" y="1642">  │   │ ├── tunnel-agent@0.6.0 </tspan>
<tspan x="10" y="1658">  │   │ └── uuid@3.0.1 </tspan>
<tspan x="10" y="1674">  │   ├── sax@1.2.2 </tspan>
<tspan x="10" y="1690">  │   ├── symbol-tree@3.2.2 </tspan>
<tspan x="10" y="1706">  │   ├─┬ tough-cookie@2.3.2 </tspan>
<tspan x="10" y="1722">  │   │ └── punycode@1.4.1 </tspan>
<tspan x="10" y="1738">  │   ├── webidl-conversions@2.0.1 </tspan>
<tspan x="10" y="1754">  │   ├─┬ whatwg-url-compat@0.6.5 </tspan>
<tspan x="10" y="1770">  │   │ └── tr46@0.0.3 </tspan>
<tspan x="10" y="1786">  │   └── xml-name-validator@2.0.1 </tspan>
<tspan x="10" y="1802">  ├─┬ deep-assign@2.0.0 </tspan>
<tspan x="10" y="1818">  │ └── is-obj@1.0.1 </tspan>
<tspan x="10" y="1834">  ├─┬ hexo-cli@1.0.2 </tspan>
<tspan x="10" y="1850">  │ ├── minimist@1.2.0 </tspan>
<tspan x="10" y="1866">  │ └── object-assign@4.1.1 </tspan>
<tspan x="10" y="1882">  ├── hexo-front-matter@0.2.3 </tspan>
<tspan x="10" y="1898">  ├─┬ hexo-fs@0.1.6 </tspan>
<tspan x="10" y="1914">  │ ├─┬ chokidar@1.6.1 </tspan>
<tspan x="10" y="1930">  │ │ ├─┬ anymatch@1.3.0 </tspan>
<tspan x="10" y="1946">  │ │ │ ├── arrify@1.0.1 </tspan>
<tspan x="10" y="1962">  │ │ │ └─┬ micromatch@2.3.11 </tspan>
<tspan x="10" y="1978">  │ │ │   ├─┬ arr-diff@2.0.0 </tspan>
<tspan x="10" y="1994">  │ │ │   │ └── arr-flatten@1.0.3 </tspan>
<tspan x="10" y="2010">  │ │ │   ├── array-unique@0.2.1 </tspan>
<tspan x="10" y="2026">  │ │ │   ├─┬ braces@1.8.5 </tspan>
<tspan x="10" y="2042">  │ │ │   │ ├─┬ expand-range@1.8.2 </tspan>
<tspan x="10" y="2058">  │ │ │   │ │ └─┬ fill-range@2.2.3 </tspan>
<tspan x="10" y="2074">  │ │ │   │ │   ├── is-number@2.1.0 </tspan>
<tspan x="10" y="2090">  │ │ │   │ │   ├─┬ isobject@2.1.0 </tspan>
<tspan x="10" y="2106">  │ │ │   │ │   │ └── isarray@1.0.0 </tspan>
<tspan x="10" y="2122">  │ │ │   │ │   ├── randomatic@1.1.6 </tspan>
<tspan x="10" y="2138">  │ │ │   │ │   └── repeat-string@1.6.1 </tspan>
<tspan x="10" y="2154">  │ │ │   │ ├── preserve@0.2.0 </tspan>
<tspan x="10" y="2170">  │ │ │   │ └── repeat-element@1.1.2 </tspan>
<tspan x="10" y="2186">  │ │ │   ├─┬ expand-brackets@0.1.5 </tspan>
<tspan x="10" y="2202">  │ │ │   │ └── is-posix-bracket@0.1.1 </tspan>
<tspan x="10" y="2218">  │ │ │   ├── extglob@0.3.2 </tspan>
<tspan x="10" y="2234">  │ │ │   ├── filename-regex@2.0.0 </tspan>
<tspan x="10" y="2250">  │ │ │   ├─┬ kind-of@3.1.0 </tspan>
<tspan x="10" y="2266">  │ │ │   │ └── is-buffer@1.1.5 </tspan>
<tspan x="10" y="2282">  │ │ │   ├─┬ normalize-path@2.1.1 </tspan>
<tspan x="10" y="2298">  │ │ │   │ └── remove-trailing-separator@1.0.1 </tspan>
<tspan x="10" y="2314">  │ │ │   ├─┬ object.omit@2.0.1 </tspan>
<tspan x="10" y="2330">  │ │ │   │ ├─┬ for-own@0.1.5 </tspan>
<tspan x="10" y="2346">  │ │ │   │ │ └── for-in@1.0.2 </tspan>
<tspan x="10" y="2362">  │ │ │   │ └── is-extendable@0.1.1 </tspan>
<tspan x="10" y="2378">  │ │ │   ├─┬ parse-glob@3.0.4 </tspan>
<tspan x="10" y="2394">  │ │ │   │ ├── glob-base@0.3.0 </tspan>
<tspan x="10" y="2410">  │ │ │   │ └── is-dotfile@1.0.2 </tspan>
<tspan x="10" y="2426">  │ │ │   └─┬ regex-cache@0.4.3 </tspan>
<tspan x="10" y="2442">  │ │ │     ├── is-equal-shallow@0.1.3 </tspan>
<tspan x="10" y="2458">  │ │ │     └── is-primitive@2.0.0 </tspan>
<tspan x="10" y="2474">  │ │ ├── async-each@1.0.1 </tspan>
<tspan x="10" y="2490">  │ │ ├── glob-parent@2.0.0 </tspan>
<tspan x="10" y="2506">  │ │ ├── inherits@2.0.3 </tspan>
<tspan x="10" y="2522">  │ │ ├─┬ is-binary-path@1.0.1 </tspan>
<tspan x="10" y="2538">  │ │ │ └── binary-extensions@1.8.0 </tspan>
<tspan x="10" y="2554">  │ │ ├─┬ is-glob@2.0.1 </tspan>
<tspan x="10" y="2570">  │ │ │ └── is-extglob@1.0.0 </tspan>
<tspan x="10" y="2586">  │ │ ├── path-is-absolute@1.0.1 </tspan>
<tspan x="10" y="2602">  │ │ └─┬ readdirp@2.1.0 </tspan>
<tspan x="10" y="2618">  │ │   ├─┬ readable-stream@2.2.9 </tspan>
<tspan x="10" y="2634">  │ │   │ ├── buffer-shims@1.0.0 </tspan>
<tspan x="10" y="2650">  │ │   │ ├── isarray@1.0.0 </tspan>
<tspan x="10" y="2666">  │ │   │ ├── process-nextick-args@1.0.7 </tspan>
<tspan x="10" y="2682">  │ │   │ ├── string_decoder@1.0.0 </tspan>
<tspan x="10" y="2698">  │ │   │ └── util-deprecate@1.0.2 </tspan>
<tspan x="10" y="2714">  │ │   └── set-immediate-shim@1.0.1 </tspan>
<tspan x="10" y="2730">  │ └── graceful-fs@4.1.11 </tspan>
<tspan x="10" y="2746">  ├─┬ hexo-i18n@0.2.1 </tspan>
<tspan x="10" y="2762">  │ └── sprintf-js@1.0.3 </tspan>
<tspan x="10" y="2778">  ├─┬ hexo-log@0.1.2 </tspan>
<tspan x="10" y="2794">  │ └─┬ bunyan@1.8.10 </tspan>
<tspan x="10" y="2810">  │   ├─┬ dtrace-provider@0.8.1 </tspan>
<tspan x="10" y="2826">  │   │ └── nan@2.6.2 </tspan>
<tspan x="10" y="2842">  │   ├─┬ mv@2.1.1 </tspan>
<tspan x="10" y="2858">  │   │ ├─┬ mkdirp@0.5.1 </tspan>
<tspan x="10" y="2874">  │   │ │ └── minimist@0.0.8 </tspan>
<tspan x="10" y="2890">  │   │ ├── ncp@2.0.0 </tspan>
<tspan x="10" y="2906">  │   │ └─┬ rimraf@2.4.5 </tspan>
<tspan x="10" y="2922">  │   │   └─┬ glob@6.0.4 </tspan>
<tspan x="10" y="2938">  │   │     ├─┬ inflight@1.0.6 </tspan>
<tspan x="10" y="2954">  │   │     │ └── wrappy@1.0.2 </tspan>
<tspan x="10" y="2970">  │   │     └── once@1.4.0 </tspan>
<tspan x="10" y="2986">  │   └── safe-json-stringify@1.0.4 </tspan>
<tspan x="10" y="3002">  ├─┬ hexo-util@0.6.0 </tspan>
<tspan x="10" y="3018">  │ ├─┬ camel-case@3.0.0 </tspan>
<tspan x="10" y="3034">  │ │ ├─┬ no-case@2.3.1 </tspan>
<tspan x="10" y="3050">  │ │ │ └── lower-case@1.1.4 </tspan>
<tspan x="10" y="3066">  │ │ └── upper-case@1.1.3 </tspan>
<tspan x="10" y="3082">  │ ├─┬ cross-spawn@4.0.2 </tspan>
<tspan x="10" y="3098">  │ │ ├─┬ lru-cache@4.0.2 </tspan>
<tspan x="10" y="3114">  │ │ │ ├── pseudomap@1.0.2 </tspan>
<tspan x="10" y="3130">  │ │ │ └── yallist@2.1.2 </tspan>
<tspan x="10" y="3146">  │ │ └─┬ which@1.2.14 </tspan>
<tspan x="10" y="3162">  │ │   └── isexe@2.0.0 </tspan>
<tspan x="10" y="3178">  │ ├── highlight.js@9.11.0 </tspan>
<tspan x="10" y="3194">  │ ├── html-entities@1.2.0 </tspan>
<tspan x="10" y="3210">  │ └── striptags@2.2.1 </tspan>
<tspan x="10" y="3226">  ├─┬ js-yaml@3.8.3 </tspan>
<tspan x="10" y="3242">  │ ├── argparse@1.0.9 </tspan>
<tspan x="10" y="3258">  │ └── esprima@3.1.3 </tspan>
<tspan x="10" y="3274">  ├── lodash@4.17.4 </tspan>
<tspan x="10" y="3290">  ├─┬ minimatch@3.0.3 </tspan>
<tspan x="10" y="3306">  │ └─┬ brace-expansion@1.1.7 </tspan>
<tspan x="10" y="3322">  │   ├── balanced-match@0.4.2 </tspan>
<tspan x="10" y="3338">  │   └── concat-map@0.0.1 </tspan>
<tspan x="10" y="3354">  ├── moment@2.13.0 </tspan>
<tspan x="10" y="3370">  ├── moment-timezone@0.5.13 </tspan>
<tspan x="10" y="3386">  ├─┬ nunjucks@2.5.2 </tspan>
<tspan x="10" y="3402">  │ ├── asap@2.0.5 </tspan>
<tspan x="10" y="3418">  │ └─┬ yargs@3.32.0 </tspan>
<tspan x="10" y="3434">  │   ├── camelcase@2.1.1 </tspan>
<tspan x="10" y="3450">  │   ├─┬ cliui@3.2.0 </tspan>
<tspan x="10" y="3466">  │   │ └── wrap-ansi@2.1.0 </tspan>
<tspan x="10" y="3482">  │   ├── decamelize@1.2.0 </tspan>
<tspan x="10" y="3498">  │   ├─┬ os-locale@1.4.0 </tspan>
<tspan x="10" y="3514">  │   │ └─┬ lcid@1.0.0 </tspan>
<tspan x="10" y="3530">  │   │   └── invert-kv@1.0.0 </tspan>
<tspan x="10" y="3546">  │   ├─┬ string-width@1.0.2 </tspan>
<tspan x="10" y="3562">  │   │ ├── code-point-at@1.1.0 </tspan>
<tspan x="10" y="3578">  │   │ └─┬ is-fullwidth-code-point@1.0.0 </tspan>
<tspan x="10" y="3594">  │   │   └── number-is-nan@1.0.1 </tspan>
<tspan x="10" y="3610">  │   ├── window-size@0.1.4 </tspan>
<tspan x="10" y="3626">  │   └── y18n@3.2.1 </tspan>
<tspan x="10" y="3642">  ├── pretty-hrtime@1.0.3 </tspan>
<tspan x="10" y="3658">  ├─┬ strip-indent@1.0.1 </tspan>
<tspan x="10" y="3674">  │ └── get-stdin@4.0.1 </tspan>
<tspan x="10" y="3690">  ├─┬ swig@1.4.2 </tspan>
<tspan x="10" y="3706">  │ ├─┬ optimist@0.6.1 </tspan>
<tspan x="10" y="3722">  │ │ ├── minimist@0.0.10 </tspan>
<tspan x="10" y="3738">  │ │ └── wordwrap@0.0.3 </tspan>
<tspan x="10" y="3754">  │ └─┬ uglify-js@2.4.24 </tspan>
<tspan x="10" y="3770">  │   ├── async@0.2.10 </tspan>
<tspan x="10" y="3786">  │   ├─┬ source-map@0.1.34 </tspan>
<tspan x="10" y="3802">  │   │ └── amdefine@1.0.1 </tspan>
<tspan x="10" y="3818">  │   ├── uglify-to-browserify@1.0.2 </tspan>
<tspan x="10" y="3834">  │   └─┬ yargs@3.5.4 </tspan>
<tspan x="10" y="3850">  │     ├── camelcase@1.2.1 </tspan>
<tspan x="10" y="3866">  │     ├── window-size@0.1.0 </tspan>
<tspan x="10" y="3882">  │     └── wordwrap@0.0.2 </tspan>
<tspan x="10" y="3898">  ├─┬ swig-extras@0.0.1 </tspan>
<tspan x="10" y="3914">  │ └─┬ markdown@0.5.0 </tspan>
<tspan x="10" y="3930">  │   └── nopt@2.1.2 </tspan>
<tspan x="10" y="3946">  ├── text-table@0.2.0 </tspan>
<tspan x="10" y="3962">  ├─┬ tildify@1.2.0 </tspan>
<tspan x="10" y="3978">  │ └── os-homedir@1.0.2 </tspan>
<tspan x="10" y="3994">  ├── titlecase@1.1.2 </tspan>
<tspan x="10" y="4010">  └─┬ warehouse@2.2.0 </tspan>
<tspan x="10" y="4026">    ├─┬ cuid@1.3.8 </tspan>
<tspan x="10" y="4042">    │ ├── browser-fingerprint@0.0.1 </tspan>
<tspan x="10" y="4058">    │ ├── core-js@1.2.7 </tspan>
<tspan x="10" y="4074">    │ └── node-fingerprint@0.0.2 </tspan>
<tspan x="10" y="4090">    ├─┬ is-plain-object@2.0.1 </tspan>
<tspan x="10" y="4106">    │ └── isobject@1.0.2 </tspan>
<tspan x="10" y="4122">    └─┬ JSONStream@1.3.1 </tspan>
<tspan x="10" y="4138">      ├── jsonparse@1.3.0 </tspan>
<tspan x="10" y="4154">      └── through@2.3.8</tspan>
</text>
</svg>
